<?xml version="1.0" encoding="UTF-8" standalone="no"?><!DOCTYPE svg PUBLIC "-//W3C//DTD SVG 1.1//EN" "http://www.w3.org/Graphics/SVG/1.1/DTD/svg11.dtd"><svg width="100%" height="100%" viewBox="0 0 1248 1248" version="1.1" xmlns="http://www.w3.org/2000/svg" xmlns:xlink="http://www.w3.org/1999/xlink" xml:space="preserve" xmlns:serif="http://www.serif.com/" style="fill-rule:evenodd;clip-rule:evenodd;stroke-linejoin:round;stroke-miterlimit:2;"><rect id="Artboard4" x="0" y="0" width="1247.67" height="1247.67" style="fill:none;"/><path d="M643.978,38.647c0.019,-5.354 -2.094,-10.496 -5.873,-14.288c-3.779,-3.793 -8.913,-5.925 -14.267,-5.925c-0.001,0.005 -0.002,0.005 -0.003,0.005c-5.353,-0 -10.485,2.131 -14.263,5.923c-3.778,3.792 -5.891,8.932 -5.872,14.285c0.184,52.279 0.693,193.212 0.881,245.347c0.039,10.606 8.648,19.184 19.254,19.184c0.001,-0.014 0.002,-0.014 0.003,-0.014c10.598,-0 19.201,-8.572 19.239,-19.17c0.203,-52.135 0.712,-193.068 0.901,-245.347Zm-91.877,4.06c-0.819,-5.291 -3.71,-10.039 -8.036,-13.194c-4.326,-3.155 -9.73,-4.458 -15.018,-3.62c-0,0.006 -0.001,0.006 -0.002,0.006c-5.287,0.838 -10.023,3.746 -13.161,8.082c-3.139,4.336 -4.422,9.743 -3.565,15.027c8.36,51.607 30.909,190.725 39.251,242.189c1.697,10.47 11.542,17.595 22.018,15.936c-0.002,-0.015 -0.001,-0.015 0,-0.015c10.468,-1.658 17.624,-11.469 16.004,-21.943c-7.955,-51.525 -29.499,-190.802 -37.491,-242.468Zm-90.111,18.384c-1.636,-5.099 -5.235,-9.336 -10.001,-11.775c-4.766,-2.44 -10.308,-2.881 -15.4,-1.226c0.001,0.006 0,0.006 -0.001,0.006c-5.09,1.654 -9.313,5.267 -11.735,10.041c-2.421,4.774 -2.842,10.315 -1.17,15.4c16.331,49.664 60.365,183.542 76.655,233.067c3.314,10.075 14.152,15.573 24.239,12.295c-0.003,-0.014 -0.002,-0.014 -0.001,-0.014c10.079,-3.275 15.612,-14.085 12.373,-24.177c-15.917,-49.646 -58.984,-183.838 -74.959,-233.617Zm-86.126,32.253c-2.413,-4.779 -6.63,-8.401 -11.72,-10.065c-5.089,-1.664 -10.631,-1.233 -15.402,1.198c0.002,0.006 0.001,0.006 0.001,0.006c-4.77,2.43 -8.375,6.66 -10.02,11.753c-1.645,5.094 -1.194,10.633 1.253,15.394c23.899,46.498 88.334,171.839 112.171,218.206c4.849,9.433 16.414,13.167 25.864,8.352c-0.005,-0.013 -0.004,-0.014 -0.004,-0.014c9.444,-4.812 13.217,-16.354 8.44,-25.815c-23.488,-46.545 -87.017,-172.348 -110.583,-219.015Zm-80.02,45.33c-3.131,-4.344 -7.863,-7.261 -13.15,-8.108c-5.286,-0.848 -10.693,0.445 -15.025,3.592c0.003,0.006 0.002,0.006 0.002,0.007c-4.331,3.146 -7.23,7.887 -8.058,13.175c-0.828,5.289 0.484,10.689 3.646,15.008c30.878,42.187 114.128,155.905 144.924,197.973c6.266,8.557 18.272,10.437 26.853,4.202c-0.008,-0.012 -0.007,-0.012 -0.006,-0.013c8.574,-6.229 10.495,-18.22 4.297,-26.817c-30.48,-42.297 -112.906,-156.613 -143.483,-199.019Zm-71.943,57.289c-3.773,-3.8 -8.902,-5.941 -14.257,-5.951c-5.354,-0.01 -10.492,2.113 -14.278,5.899c0.004,0.004 0.003,0.005 0.003,0.006c-3.785,3.785 -5.908,8.921 -5.898,14.274c0.01,5.352 2.15,10.481 5.949,14.252c37.097,36.838 137.112,136.132 174.11,172.864c7.527,7.473 19.68,7.45 27.179,-0.049c-0.009,-0.011 -0.008,-0.012 -0.008,-0.013c7.495,-7.494 7.516,-19.637 0.049,-27.158c-36.721,-37.009 -136.015,-137.023 -172.849,-174.124Zm-62.096,67.838c-4.32,-3.163 -9.722,-4.475 -15.012,-3.648c-5.29,0.828 -10.032,3.729 -13.179,8.06c0.004,0.004 0.003,0.005 0.003,0.006c-3.146,4.33 -4.439,9.735 -3.592,15.021c0.847,5.285 3.763,10.016 8.105,13.146c42.404,30.581 156.72,113.007 199.008,143.499c8.604,6.203 20.603,4.28 26.837,-4.301c-0.01,-0.009 -0.01,-0.01 -0.009,-0.01c6.229,-8.574 4.351,-20.572 -4.2,-26.832c-42.059,-30.809 -155.777,-114.059 -197.961,-144.941Zm-50.719,76.717c-4.762,-2.448 -10.302,-2.899 -15.398,-1.254c-5.095,1.645 -9.325,5.251 -11.756,10.022c0.005,0.004 0.004,0.004 0.004,0.005c-2.43,4.77 -2.861,10.31 -1.198,15.398c1.663,5.088 5.284,9.304 10.062,11.717c46.665,23.57 172.468,87.099 219.006,110.6c9.468,4.781 21.019,1.004 25.834,-8.446c-0.012,-0.007 -0.012,-0.008 -0.011,-0.009c4.811,-9.443 1.08,-20.999 -8.346,-25.845c-46.36,-23.85 -171.701,-88.285 -218.197,-112.188Zm-38.094,83.707c-5.086,-1.673 -10.629,-1.252 -15.404,1.17c-4.775,2.422 -8.389,6.645 -10.043,11.738c0.005,0.002 0.005,0.003 0.004,0.004c-1.654,5.091 -1.213,10.631 1.226,15.396c2.439,4.765 6.674,8.362 11.771,9.998c49.778,15.981 183.97,59.047 233.612,74.979c10.099,3.24 20.917,-2.297 24.194,-12.384c-0.013,-0.005 -0.013,-0.006 -0.013,-0.007c3.276,-10.079 -2.218,-20.909 -12.286,-24.221c-49.52,-16.304 -183.398,-60.338 -233.061,-76.673Zm-24.529,88.635c-5.286,-0.857 -10.694,0.426 -15.032,3.565c-4.337,3.14 -7.246,7.877 -8.084,13.165c0.006,0.002 0.006,0.003 0.006,0.004c-0.838,5.287 0.464,10.689 3.619,15.014c3.154,4.325 7.9,7.216 13.19,8.034c51.665,7.997 190.942,29.541 242.465,37.511c10.481,1.62 20.3,-5.541 21.959,-16.016c-0.014,-0.003 -0.014,-0.004 -0.014,-0.005c1.658,-10.468 -5.462,-20.305 -15.923,-22.001c-51.462,-8.357 -190.58,-30.906 -242.186,-39.271Zm-10.363,91.382c-5.354,-0.02 -10.495,2.094 -14.288,5.873c-3.792,3.779 -5.924,8.912 -5.924,14.266c0.005,0.001 0.005,0.002 0.005,0.003c-0,5.353 2.131,10.485 5.923,14.264c3.792,3.778 8.932,5.89 14.284,5.871c52.28,-0.184 193.213,-0.693 245.348,-0.881c10.606,-0.039 19.184,-8.648 19.184,-19.254c-0.015,-0.001 -0.015,-0.002 -0.015,-0.003c0,-10.598 -8.571,-19.2 -19.169,-19.239c-52.135,-0.203 -193.068,-0.712 -245.348,-0.9Zm4.061,91.877c-5.291,0.818 -10.039,3.71 -13.194,8.035c-3.155,4.326 -4.458,9.731 -3.62,15.019c0.006,-0 0.006,0.001 0.006,0.002c0.837,5.287 3.745,10.022 8.082,13.161c4.336,3.138 9.743,4.421 15.027,3.565c51.607,-8.36 190.725,-30.91 242.189,-39.251c10.469,-1.698 17.595,-11.543 15.935,-22.018c-0.014,0.001 -0.014,0 -0.014,-0.001c-1.658,-10.468 -11.469,-17.623 -21.943,-16.003c-51.525,7.955 -190.802,29.499 -242.468,37.491Zm18.383,90.111c-5.098,1.636 -9.335,5.234 -11.774,10c-2.44,4.767 -2.881,10.308 -1.226,15.4c0.006,-0.001 0.006,0 0.006,0.001c1.654,5.091 5.267,9.314 10.041,11.735c4.774,2.421 10.315,2.842 15.4,1.17c49.664,-16.33 183.542,-60.365 233.067,-76.654c10.075,-3.315 15.572,-14.153 12.295,-24.24c-0.014,0.003 -0.014,0.003 -0.014,0.002c-3.275,-10.08 -14.086,-15.613 -24.177,-12.374c-49.646,15.917 -183.838,58.984 -233.618,74.96Zm32.254,86.125c-4.78,2.414 -8.401,6.631 -10.065,11.72c-1.664,5.089 -1.233,10.631 1.198,15.402c0.005,-0.002 0.006,-0.001 0.006,-0c2.43,4.769 6.659,8.375 11.753,10.02c5.094,1.644 10.633,1.193 15.394,-1.254c46.498,-23.898 171.839,-88.334 218.206,-112.17c9.432,-4.85 13.167,-16.415 8.352,-25.865c-0.014,0.006 -0.014,0.005 -0.014,0.004c-4.812,-9.443 -16.354,-13.217 -25.815,-8.439c-46.545,23.487 -172.348,87.016 -219.015,110.582Zm45.329,80.02c-4.343,3.132 -7.26,7.863 -8.108,13.15c-0.847,5.287 0.446,10.693 3.593,15.025c0.005,-0.003 0.006,-0.002 0.006,-0.001c3.147,4.33 7.888,7.23 13.176,8.058c5.289,0.827 10.689,-0.485 15.008,-3.646c42.187,-30.879 155.905,-114.128 197.972,-144.925c8.558,-6.265 10.437,-18.272 4.203,-26.852c-0.012,0.007 -0.012,0.006 -0.013,0.006c-6.229,-8.575 -18.22,-10.496 -26.817,-4.297c-42.297,30.479 -156.613,112.906 -199.02,143.482Zm57.29,71.944c-3.8,3.772 -5.942,8.902 -5.951,14.256c-0.01,5.354 2.112,10.492 5.898,14.278c0.005,-0.003 0.006,-0.003 0.007,-0.002c3.785,3.785 8.921,5.907 14.274,5.897c5.352,-0.009 10.481,-2.15 14.252,-5.949c36.838,-37.097 136.132,-137.111 172.864,-174.109c7.472,-7.528 7.45,-19.68 -0.05,-27.18c-0.01,0.009 -0.011,0.009 -0.012,0.008c-7.494,-7.494 -19.637,-7.516 -27.159,-0.049c-37.008,36.721 -137.023,136.016 -174.123,172.85Zm67.838,62.096c-3.163,4.32 -4.476,9.721 -3.648,15.011c0.828,5.29 3.728,10.033 8.06,13.18c0.004,-0.004 0.005,-0.004 0.006,-0.003c4.33,3.146 9.735,4.438 15.021,3.591c5.285,-0.846 10.016,-3.763 13.146,-8.105c30.581,-42.403 113.007,-156.719 143.499,-199.008c6.203,-8.603 4.28,-20.603 -4.301,-26.837c-0.009,0.011 -0.01,0.01 -0.01,0.01c-8.575,-6.23 -20.572,-4.352 -26.833,4.2c-30.808,42.059 -114.058,155.776 -144.94,197.961Zm76.717,50.719c-2.448,4.761 -2.9,10.302 -1.254,15.397c1.645,5.095 5.251,9.326 10.022,11.756c0.003,-0.004 0.004,-0.004 0.005,-0.004c4.769,2.431 10.31,2.862 15.398,1.198c5.088,-1.663 9.304,-5.284 11.717,-10.062c23.57,-46.665 87.099,-172.468 110.6,-219.006c4.781,-9.468 1.004,-21.019 -8.446,-25.834c-0.007,0.012 -0.008,0.012 -0.009,0.012c-9.443,-4.812 -20.999,-1.08 -25.845,8.345c-23.85,46.361 -88.285,171.702 -112.188,218.198Zm83.707,38.093c-1.673,5.086 -1.252,10.629 1.17,15.404c2.422,4.775 6.645,8.389 11.737,10.044c0.003,-0.005 0.004,-0.005 0.005,-0.005c5.091,1.654 10.631,1.213 15.396,-1.225c4.765,-2.439 8.362,-6.675 9.998,-11.772c15.98,-49.777 59.047,-183.97 74.979,-233.611c3.24,-10.099 -2.297,-20.917 -12.384,-24.195c-0.005,0.014 -0.006,0.013 -0.007,0.013c-10.079,-3.275 -20.909,2.218 -24.221,12.286c-16.304,49.521 -60.338,183.398 -76.673,233.061Zm88.635,24.53c-0.857,5.285 0.426,10.694 3.565,15.031c3.139,4.338 7.877,7.247 13.165,8.084c0.002,-0.005 0.003,-0.005 0.004,-0.005c5.286,0.837 10.689,-0.465 15.014,-3.619c4.325,-3.154 7.215,-7.901 8.034,-13.19c7.997,-51.665 29.541,-190.942 37.51,-242.465c1.621,-10.482 -5.54,-20.3 -16.015,-21.96c-0.004,0.014 -0.005,0.014 -0.006,0.014c-10.467,-1.658 -20.305,5.462 -22,15.924c-8.357,51.461 -30.906,190.579 -39.271,242.186Zm91.381,10.362c-0.019,5.354 2.094,10.495 5.873,14.288c3.779,3.793 8.913,5.925 14.267,5.925c0.001,-0.005 0.002,-0.005 0.003,-0.005c5.353,-0 10.485,-2.132 14.263,-5.923c3.778,-3.792 5.891,-8.932 5.872,-14.285c-0.184,-52.28 -0.693,-193.212 -0.881,-245.348c-0.039,-10.606 -8.648,-19.183 -19.254,-19.183c-0.001,0.014 -0.002,0.014 -0.003,0.014c-10.598,-0 -19.2,8.571 -19.239,19.17c-0.203,52.135 -0.712,193.067 -0.901,245.347Zm91.878,-4.061c0.818,5.292 3.709,10.039 8.035,13.194c4.326,3.156 9.73,4.458 15.019,3.621c-0,-0.006 0.001,-0.006 0.002,-0.007c5.286,-0.837 10.022,-3.745 13.161,-8.081c3.138,-4.336 4.421,-9.744 3.564,-15.027c-8.36,-51.608 -30.909,-190.726 -39.251,-242.189c-1.697,-10.47 -11.542,-17.595 -22.017,-15.936c0.001,0.014 -0,0.014 -0.001,0.014c-10.468,1.658 -17.623,11.47 -16.003,21.944c7.955,51.525 29.499,190.802 37.491,242.467Zm90.111,-18.383c1.636,5.098 5.234,9.335 10,11.775c4.767,2.439 10.308,2.88 15.4,1.226c-0.001,-0.006 0,-0.006 0.001,-0.007c5.091,-1.654 9.313,-5.267 11.735,-10.041c2.421,-4.773 2.842,-10.315 1.17,-15.399c-16.33,-49.665 -60.365,-183.542 -76.655,-233.068c-3.314,-10.075 -14.152,-15.572 -24.239,-12.295c0.003,0.014 0.002,0.015 0.001,0.015c-10.079,3.275 -15.612,14.085 -12.373,24.176c15.917,49.646 58.984,183.839 74.96,233.618Zm86.125,-32.254c2.414,4.78 6.631,8.402 11.72,10.066c5.089,1.664 10.631,1.232 15.402,-1.198c-0.002,-0.006 -0.001,-0.006 -0,-0.007c4.769,-2.43 8.374,-6.659 10.019,-11.753c1.645,-5.094 1.194,-10.633 -1.253,-15.393c-23.898,-46.498 -88.334,-171.839 -112.17,-218.206c-4.85,-9.433 -16.415,-13.167 -25.865,-8.352c0.006,0.013 0.005,0.013 0.004,0.014c-9.443,4.811 -13.217,16.354 -8.439,25.814c23.487,46.545 87.016,172.348 110.582,219.015Zm80.02,-45.329c3.131,4.343 7.863,7.261 13.15,8.108c5.287,0.847 10.693,-0.446 15.025,-3.593c-0.003,-0.005 -0.002,-0.005 -0.001,-0.006c4.33,-3.146 7.23,-7.887 8.057,-13.176c0.828,-5.288 -0.484,-10.688 -3.646,-15.008c-30.878,-42.187 -114.127,-155.904 -144.924,-197.972c-6.265,-8.558 -18.272,-10.437 -26.853,-4.203c0.008,0.012 0.007,0.013 0.006,0.013c-8.574,6.23 -10.495,18.221 -4.297,26.817c30.48,42.298 112.907,156.614 143.483,199.02Zm71.944,-57.289c3.772,3.8 8.902,5.941 14.256,5.951c5.354,0.01 10.492,-2.113 14.278,-5.899c-0.004,-0.005 -0.003,-0.005 -0.002,-0.006c3.785,-3.785 5.907,-8.921 5.897,-14.274c-0.01,-5.353 -2.15,-10.481 -5.949,-14.253c-37.097,-36.837 -137.111,-136.132 -174.11,-172.864c-7.527,-7.472 -19.679,-7.45 -27.179,0.05c0.009,0.011 0.009,0.011 0.008,0.012c-7.494,7.494 -7.516,19.638 -0.049,27.159c36.721,37.009 136.016,137.023 172.85,174.124Zm62.095,-67.839c4.321,3.163 9.722,4.476 15.012,3.648c5.29,-0.828 10.032,-3.728 13.18,-8.06c-0.005,-0.004 -0.004,-0.005 -0.004,-0.005c3.147,-4.331 4.439,-9.736 3.592,-15.021c-0.847,-5.286 -3.763,-10.016 -8.105,-13.147c-42.403,-30.58 -156.719,-113.007 -199.008,-143.499c-8.603,-6.202 -20.603,-4.279 -26.837,4.301c0.011,0.009 0.01,0.01 0.01,0.011c-6.23,8.574 -4.352,20.572 4.2,26.832c42.058,30.809 155.776,114.058 197.96,144.94Zm50.719,-76.717c4.762,2.449 10.303,2.9 15.398,1.255c5.095,-1.645 9.326,-5.252 11.756,-10.022c-0.005,-0.004 -0.004,-0.005 -0.004,-0.006c2.43,-4.769 2.861,-10.31 1.198,-15.397c-1.663,-5.088 -5.284,-9.304 -10.062,-11.717c-46.665,-23.571 -172.468,-87.1 -219.006,-110.601c-9.468,-4.78 -21.019,-1.004 -25.834,8.447c0.012,0.007 0.012,0.008 0.011,0.009c-4.811,9.443 -1.079,20.999 8.346,25.844c46.361,23.85 171.702,88.286 218.197,112.188Zm38.094,-83.706c5.086,1.673 10.629,1.252 15.404,-1.17c4.775,-2.422 8.389,-6.646 10.044,-11.738c-0.006,-0.003 -0.005,-0.004 -0.005,-0.005c1.654,-5.09 1.213,-10.63 -1.226,-15.395c-2.438,-4.765 -6.674,-8.363 -11.771,-9.999c-49.778,-15.98 -183.97,-59.047 -233.611,-74.978c-10.099,-3.241 -20.917,2.296 -24.195,12.383c0.013,0.006 0.013,0.006 0.013,0.007c-3.275,10.08 2.218,20.91 12.286,24.221c49.521,16.304 183.398,60.339 233.061,76.674Zm24.53,-88.636c5.285,0.857 10.694,-0.426 15.031,-3.565c4.338,-3.139 7.246,-7.876 8.084,-13.164c-0.006,-0.002 -0.005,-0.003 -0.005,-0.004c0.837,-5.287 -0.465,-10.69 -3.619,-15.014c-3.154,-4.325 -7.901,-7.216 -13.191,-8.034c-51.664,-7.997 -190.942,-29.541 -242.464,-37.511c-10.482,-1.621 -20.301,5.54 -21.96,16.016c0.014,0.003 0.014,0.004 0.014,0.005c-1.658,10.468 5.462,20.305 15.924,22.001c51.461,8.356 190.579,30.906 242.186,39.27Zm10.362,-91.381c5.354,0.019 10.495,-2.094 14.288,-5.873c3.793,-3.779 5.925,-8.913 5.925,-14.267c-0.005,-0.001 -0.005,-0.002 -0.005,-0.003c-0,-5.352 -2.132,-10.485 -5.924,-14.263c-3.791,-3.778 -8.931,-5.891 -14.284,-5.872c-52.28,0.184 -193.213,0.693 -245.348,0.881c-10.606,0.039 -19.183,8.648 -19.183,19.254c0.014,0.001 0.014,0.002 0.014,0.003c-0,10.599 8.571,19.201 19.169,19.239c52.135,0.203 193.068,0.712 245.348,0.901Zm-4.061,-91.877c5.292,-0.819 10.039,-3.71 13.194,-8.036c3.155,-4.326 4.458,-9.73 3.62,-15.018c-0.005,-0 -0.006,-0.001 -0.006,-0.002c-0.837,-5.287 -3.745,-10.023 -8.081,-13.161c-4.336,-3.139 -9.744,-4.421 -15.028,-3.565c-51.607,8.36 -190.725,30.909 -242.189,39.251c-10.469,1.697 -17.594,11.542 -15.935,22.018c0.014,-0.001 0.014,-0 0.014,0c1.658,10.468 11.47,17.624 21.943,16.004c51.525,-7.955 190.803,-29.499 242.468,-37.491Zm-18.383,-90.111c5.098,-1.636 9.335,-5.235 11.774,-10.001c2.44,-4.766 2.881,-10.307 1.227,-15.4c-0.006,0.001 -0.007,0 -0.007,-0.001c-1.654,-5.09 -5.267,-9.313 -10.041,-11.734c-4.773,-2.422 -10.315,-2.843 -15.4,-1.17c-49.664,16.33 -183.541,60.364 -233.067,76.654c-10.075,3.314 -15.572,14.152 -12.295,24.24c0.014,-0.004 0.014,-0.003 0.015,-0.002c3.275,10.08 14.085,15.612 24.176,12.374c49.646,-15.918 183.838,-58.984 233.618,-74.96Zm-32.254,-86.126c4.78,-2.413 8.402,-6.63 10.066,-11.719c1.663,-5.09 1.232,-10.632 -1.198,-15.402c-0.006,0.001 -0.007,0.001 -0.007,-0c-2.43,-4.77 -6.659,-8.375 -11.753,-10.02c-5.094,-1.645 -10.633,-1.194 -15.393,1.254c-46.498,23.898 -171.839,88.333 -218.207,112.17c-9.432,4.85 -13.166,16.414 -8.351,25.864c0.013,-0.005 0.013,-0.004 0.014,-0.003c4.811,9.443 16.354,13.216 25.814,8.439c46.545,-23.488 172.348,-87.017 219.015,-110.583Zm-45.329,-80.02c4.343,-3.131 7.261,-7.863 8.108,-13.15c0.847,-5.286 -0.446,-10.693 -3.593,-15.024c-0.005,0.002 -0.006,0.001 -0.006,0.001c-3.146,-4.331 -7.888,-7.23 -13.176,-8.058c-5.288,-0.828 -10.689,0.484 -15.008,3.646c-42.187,30.878 -155.905,114.128 -197.972,144.924c-8.558,6.266 -10.437,18.272 -4.203,26.853c0.012,-0.008 0.013,-0.007 0.013,-0.006c6.23,8.574 18.22,10.496 26.817,4.297c42.298,-30.48 156.614,-112.906 199.02,-143.483Zm-57.289,-71.943c3.8,-3.772 5.941,-8.902 5.951,-14.257c0.01,-5.354 -2.113,-10.491 -5.899,-14.277c-0.005,0.003 -0.006,0.002 -0.006,0.002c-3.785,-3.785 -8.922,-5.907 -14.274,-5.898c-5.353,0.01 -10.482,2.151 -14.253,5.949c-36.837,37.098 -136.132,137.112 -172.864,174.11c-7.472,7.527 -7.45,19.68 0.05,27.18c0.011,-0.01 0.011,-0.009 0.012,-0.008c7.494,7.494 19.638,7.516 27.159,0.049c37.009,-36.722 137.023,-136.016 174.124,-172.85Zm-67.839,-62.096c3.163,-4.32 4.476,-9.722 3.648,-15.012c-0.828,-5.29 -3.728,-10.032 -8.06,-13.179c-0.004,0.004 -0.005,0.004 -0.006,0.003c-4.33,-3.146 -9.735,-4.439 -15.02,-3.592c-5.286,0.847 -10.016,3.764 -13.147,8.105c-30.58,42.404 -113.007,156.72 -143.499,199.009c-6.203,8.603 -4.28,20.602 4.301,26.837c0.009,-0.011 0.01,-0.011 0.011,-0.01c8.574,6.229 20.571,4.351 26.832,-4.2c30.809,-42.059 114.058,-155.777 144.94,-197.961Zm-76.717,-50.719c2.448,-4.762 2.9,-10.302 1.255,-15.398c-1.646,-5.095 -5.252,-9.325 -10.023,-11.756c-0.003,0.005 -0.004,0.005 -0.005,0.004c-4.769,-2.43 -10.31,-2.861 -15.398,-1.198c-5.087,1.664 -9.303,5.284 -11.716,10.062c-23.571,46.665 -87.1,172.468 -110.601,219.006c-4.78,9.468 -1.004,21.019 8.446,25.834c0.008,-0.012 0.009,-0.011 0.009,-0.011c9.444,4.812 21,1.08 25.845,-8.346c23.85,-46.36 88.286,-171.701 112.188,-218.197Zm-83.706,-38.093c1.673,-5.087 1.252,-10.63 -1.17,-15.405c-2.422,-4.775 -6.646,-8.389 -11.738,-10.043c-0.003,0.005 -0.004,0.005 -0.005,0.004c-5.09,-1.654 -10.63,-1.213 -15.395,1.226c-4.765,2.439 -8.363,6.674 -9.999,11.771c-15.98,49.778 -59.047,183.97 -74.978,233.612c-3.241,10.099 2.296,20.917 12.383,24.194c0.005,-0.013 0.006,-0.013 0.007,-0.012c10.08,3.275 20.91,-2.219 24.221,-12.287c16.304,-49.52 60.339,-183.398 76.674,-233.06Zm-88.636,-24.53c0.857,-5.285 -0.426,-10.694 -3.565,-15.032c-3.139,-4.337 -7.876,-7.246 -13.164,-8.084c-0.002,0.006 -0.003,0.006 -0.004,0.006c-5.287,-0.838 -10.69,0.465 -15.015,3.619c-4.324,3.154 -7.215,7.9 -8.033,13.19c-7.997,51.665 -29.541,190.942 -37.511,242.465c-1.621,10.481 5.54,20.3 16.016,21.959c0.003,-0.014 0.004,-0.014 0.005,-0.013c10.468,1.658 20.305,-5.463 22.001,-15.924c8.356,-51.462 30.905,-190.58 39.27,-242.186Z" style="fill:#1c7526;"/><clipPath id="_clip1"><path d="M643.978,38.647c0.019,-5.354 -2.094,-10.496 -5.873,-14.288c-3.779,-3.793 -8.913,-5.925 -14.267,-5.925c-0.001,0.005 -0.002,0.005 -0.003,0.005c-5.353,-0 -10.485,2.131 -14.263,5.923c-3.778,3.792 -5.891,8.932 -5.872,14.285c0.184,52.279 0.693,193.212 0.881,245.347c0.039,10.606 8.648,19.184 19.254,19.184c0.001,-0.014 0.002,-0.014 0.003,-0.014c10.598,-0 19.201,-8.572 19.239,-19.17c0.203,-52.135 0.712,-193.068 0.901,-245.347Zm-91.877,4.06c-0.819,-5.291 -3.71,-10.039 -8.036,-13.194c-4.326,-3.155 -9.73,-4.458 -15.018,-3.62c-0,0.006 -0.001,0.006 -0.002,0.006c-5.287,0.838 -10.023,3.746 -13.161,8.082c-3.139,4.336 -4.422,9.743 -3.565,15.027c8.36,51.607 30.909,190.725 39.251,242.189c1.697,10.47 11.542,17.595 22.018,15.936c-0.002,-0.015 -0.001,-0.015 0,-0.015c10.468,-1.658 17.624,-11.469 16.004,-21.943c-7.955,-51.525 -29.499,-190.802 -37.491,-242.468Zm-90.111,18.384c-1.636,-5.099 -5.235,-9.336 -10.001,-11.775c-4.766,-2.44 -10.308,-2.881 -15.4,-1.226c0.001,0.006 0,0.006 -0.001,0.006c-5.09,1.654 -9.313,5.267 -11.735,10.041c-2.421,4.774 -2.842,10.315 -1.17,15.4c16.331,49.664 60.365,183.542 76.655,233.067c3.314,10.075 14.152,15.573 24.239,12.295c-0.003,-0.014 -0.002,-0.014 -0.001,-0.014c10.079,-3.275 15.612,-14.085 12.373,-24.177c-15.917,-49.646 -58.984,-183.838 -74.959,-233.617Zm-86.126,32.253c-2.413,-4.779 -6.63,-8.401 -11.72,-10.065c-5.089,-1.664 -10.631,-1.233 -15.402,1.198c0.002,0.006 0.001,0.006 0.001,0.006c-4.77,2.43 -8.375,6.66 -10.02,11.753c-1.645,5.094 -1.194,10.633 1.253,15.394c23.899,46.498 88.334,171.839 112.171,218.206c4.849,9.433 16.414,13.167 25.864,8.352c-0.005,-0.013 -0.004,-0.014 -0.004,-0.014c9.444,-4.812 13.217,-16.354 8.44,-25.815c-23.488,-46.545 -87.017,-172.348 -110.583,-219.015Zm-80.02,45.33c-3.131,-4.344 -7.863,-7.261 -13.15,-8.108c-5.286,-0.848 -10.693,0.445 -15.025,3.592c0.003,0.006 0.002,0.006 0.002,0.007c-4.331,3.146 -7.23,7.887 -8.058,13.175c-0.828,5.289 0.484,10.689 3.646,15.008c30.878,42.187 114.128,155.905 144.924,197.973c6.266,8.557 18.272,10.437 26.853,4.202c-0.008,-0.012 -0.007,-0.012 -0.006,-0.013c8.574,-6.229 10.495,-18.22 4.297,-26.817c-30.48,-42.297 -112.906,-156.613 -143.483,-199.019Zm-71.943,57.289c-3.773,-3.8 -8.902,-5.941 -14.257,-5.951c-5.354,-0.01 -10.492,2.113 -14.278,5.899c0.004,0.004 0.003,0.005 0.003,0.006c-3.785,3.785 -5.908,8.921 -5.898,14.274c0.01,5.352 2.15,10.481 5.949,14.252c37.097,36.838 137.112,136.132 174.11,172.864c7.527,7.473 19.68,7.45 27.179,-0.049c-0.009,-0.011 -0.008,-0.012 -0.008,-0.013c7.495,-7.494 7.516,-19.637 0.049,-27.158c-36.721,-37.009 -136.015,-137.023 -172.849,-174.124Zm-62.096,67.838c-4.32,-3.163 -9.722,-4.475 -15.012,-3.648c-5.29,0.828 -10.032,3.729 -13.179,8.06c0.004,0.004 0.003,0.005 0.003,0.006c-3.146,4.33 -4.439,9.735 -3.592,15.021c0.847,5.285 3.763,10.016 8.105,13.146c42.404,30.581 156.72,113.007 199.008,143.499c8.604,6.203 20.603,4.28 26.837,-4.301c-0.01,-0.009 -0.01,-0.01 -0.009,-0.01c6.229,-8.574 4.351,-20.572 -4.2,-26.832c-42.059,-30.809 -155.777,-114.059 -197.961,-144.941Zm-50.719,76.717c-4.762,-2.448 -10.302,-2.899 -15.398,-1.254c-5.095,1.645 -9.325,5.251 -11.756,10.022c0.005,0.004 0.004,0.004 0.004,0.005c-2.43,4.77 -2.861,10.31 -1.198,15.398c1.663,5.088 5.284,9.304 10.062,11.717c46.665,23.57 172.468,87.099 219.006,110.6c9.468,4.781 21.019,1.004 25.834,-8.446c-0.012,-0.007 -0.012,-0.008 -0.011,-0.009c4.811,-9.443 1.08,-20.999 -8.346,-25.845c-46.36,-23.85 -171.701,-88.285 -218.197,-112.188Zm-38.094,83.707c-5.086,-1.673 -10.629,-1.252 -15.404,1.17c-4.775,2.422 -8.389,6.645 -10.043,11.738c0.005,0.002 0.005,0.003 0.004,0.004c-1.654,5.091 -1.213,10.631 1.226,15.396c2.439,4.765 6.674,8.362 11.771,9.998c49.778,15.981 183.97,59.047 233.612,74.979c10.099,3.24 20.917,-2.297 24.194,-12.384c-0.013,-0.005 -0.013,-0.006 -0.013,-0.007c3.276,-10.079 -2.218,-20.909 -12.286,-24.221c-49.52,-16.304 -183.398,-60.338 -233.061,-76.673Zm-24.529,88.635c-5.286,-0.857 -10.694,0.426 -15.032,3.565c-4.337,3.14 -7.246,7.877 -8.084,13.165c0.006,0.002 0.006,0.003 0.006,0.004c-0.838,5.287 0.464,10.689 3.619,15.014c3.154,4.325 7.9,7.216 13.19,8.034c51.665,7.997 190.942,29.541 242.465,37.511c10.481,1.62 20.3,-5.541 21.959,-16.016c-0.014,-0.003 -0.014,-0.004 -0.014,-0.005c1.658,-10.468 -5.462,-20.305 -15.923,-22.001c-51.462,-8.357 -190.58,-30.906 -242.186,-39.271Zm-10.363,91.382c-5.354,-0.02 -10.495,2.094 -14.288,5.873c-3.792,3.779 -5.924,8.912 -5.924,14.266c0.005,0.001 0.005,0.002 0.005,0.003c-0,5.353 2.131,10.485 5.923,14.264c3.792,3.778 8.932,5.89 14.284,5.871c52.28,-0.184 193.213,-0.693 245.348,-0.881c10.606,-0.039 19.184,-8.648 19.184,-19.254c-0.015,-0.001 -0.015,-0.002 -0.015,-0.003c0,-10.598 -8.571,-19.2 -19.169,-19.239c-52.135,-0.203 -193.068,-0.712 -245.348,-0.9Zm4.061,91.877c-5.291,0.818 -10.039,3.71 -13.194,8.035c-3.155,4.326 -4.458,9.731 -3.62,15.019c0.006,-0 0.006,0.001 0.006,0.002c0.837,5.287 3.745,10.022 8.082,13.161c4.336,3.138 9.743,4.421 15.027,3.565c51.607,-8.36 190.725,-30.91 242.189,-39.251c10.469,-1.698 17.595,-11.543 15.935,-22.018c-0.014,0.001 -0.014,0 -0.014,-0.001c-1.658,-10.468 -11.469,-17.623 -21.943,-16.003c-51.525,7.955 -190.802,29.499 -242.468,37.491Zm18.383,90.111c-5.098,1.636 -9.335,5.234 -11.774,10c-2.44,4.767 -2.881,10.308 -1.226,15.4c0.006,-0.001 0.006,0 0.006,0.001c1.654,5.091 5.267,9.314 10.041,11.735c4.774,2.421 10.315,2.842 15.4,1.17c49.664,-16.33 183.542,-60.365 233.067,-76.654c10.075,-3.315 15.572,-14.153 12.295,-24.24c-0.014,0.003 -0.014,0.003 -0.014,0.002c-3.275,-10.08 -14.086,-15.613 -24.177,-12.374c-49.646,15.917 -183.838,58.984 -233.618,74.96Zm32.254,86.125c-4.78,2.414 -8.401,6.631 -10.065,11.72c-1.664,5.089 -1.233,10.631 1.198,15.402c0.005,-0.002 0.006,-0.001 0.006,-0c2.43,4.769 6.659,8.375 11.753,10.02c5.094,1.644 10.633,1.193 15.394,-1.254c46.498,-23.898 171.839,-88.334 218.206,-112.17c9.432,-4.85 13.167,-16.415 8.352,-25.865c-0.014,0.006 -0.014,0.005 -0.014,0.004c-4.812,-9.443 -16.354,-13.217 -25.815,-8.439c-46.545,23.487 -172.348,87.016 -219.015,110.582Zm45.329,80.02c-4.343,3.132 -7.26,7.863 -8.108,13.15c-0.847,5.287 0.446,10.693 3.593,15.025c0.005,-0.003 0.006,-0.002 0.006,-0.001c3.147,4.33 7.888,7.23 13.176,8.058c5.289,0.827 10.689,-0.485 15.008,-3.646c42.187,-30.879 155.905,-114.128 197.972,-144.925c8.558,-6.265 10.437,-18.272 4.203,-26.852c-0.012,0.007 -0.012,0.006 -0.013,0.006c-6.229,-8.575 -18.22,-10.496 -26.817,-4.297c-42.297,30.479 -156.613,112.906 -199.02,143.482Zm57.29,71.944c-3.8,3.772 -5.942,8.902 -5.951,14.256c-0.01,5.354 2.112,10.492 5.898,14.278c0.005,-0.003 0.006,-0.003 0.007,-0.002c3.785,3.785 8.921,5.907 14.274,5.897c5.352,-0.009 10.481,-2.15 14.252,-5.949c36.838,-37.097 136.132,-137.111 172.864,-174.109c7.472,-7.528 7.45,-19.68 -0.05,-27.18c-0.01,0.009 -0.011,0.009 -0.012,0.008c-7.494,-7.494 -19.637,-7.516 -27.159,-0.049c-37.008,36.721 -137.023,136.016 -174.123,172.85Zm67.838,62.096c-3.163,4.32 -4.476,9.721 -3.648,15.011c0.828,5.29 3.728,10.033 8.06,13.18c0.004,-0.004 0.005,-0.004 0.006,-0.003c4.33,3.146 9.735,4.438 15.021,3.591c5.285,-0.846 10.016,-3.763 13.146,-8.105c30.581,-42.403 113.007,-156.719 143.499,-199.008c6.203,-8.603 4.28,-20.603 -4.301,-26.837c-0.009,0.011 -0.01,0.01 -0.01,0.01c-8.575,-6.23 -20.572,-4.352 -26.833,4.2c-30.808,42.059 -114.058,155.776 -144.94,197.961Zm76.717,50.719c-2.448,4.761 -2.9,10.302 -1.254,15.397c1.645,5.095 5.251,9.326 10.022,11.756c0.003,-0.004 0.004,-0.004 0.005,-0.004c4.769,2.431 10.31,2.862 15.398,1.198c5.088,-1.663 9.304,-5.284 11.717,-10.062c23.57,-46.665 87.099,-172.468 110.6,-219.006c4.781,-9.468 1.004,-21.019 -8.446,-25.834c-0.007,0.012 -0.008,0.012 -0.009,0.012c-9.443,-4.812 -20.999,-1.08 -25.845,8.345c-23.85,46.361 -88.285,171.702 -112.188,218.198Zm83.707,38.093c-1.673,5.086 -1.252,10.629 1.17,15.404c2.422,4.775 6.645,8.389 11.737,10.044c0.003,-0.005 0.004,-0.005 0.005,-0.005c5.091,1.654 10.631,1.213 15.396,-1.225c4.765,-2.439 8.362,-6.675 9.998,-11.772c15.98,-49.777 59.047,-183.97 74.979,-233.611c3.24,-10.099 -2.297,-20.917 -12.384,-24.195c-0.005,0.014 -0.006,0.013 -0.007,0.013c-10.079,-3.275 -20.909,2.218 -24.221,12.286c-16.304,49.521 -60.338,183.398 -76.673,233.061Zm88.635,24.53c-0.857,5.285 0.426,10.694 3.565,15.031c3.139,4.338 7.877,7.247 13.165,8.084c0.002,-0.005 0.003,-0.005 0.004,-0.005c5.286,0.837 10.689,-0.465 15.014,-3.619c4.325,-3.154 7.215,-7.901 8.034,-13.19c7.997,-51.665 29.541,-190.942 37.51,-242.465c1.621,-10.482 -5.54,-20.3 -16.015,-21.96c-0.004,0.014 -0.005,0.014 -0.006,0.014c-10.467,-1.658 -20.305,5.462 -22,15.924c-8.357,51.461 -30.906,190.579 -39.271,242.186Zm91.381,10.362c-0.019,5.354 2.094,10.495 5.873,14.288c3.779,3.793 8.913,5.925 14.267,5.925c0.001,-0.005 0.002,-0.005 0.003,-0.005c5.353,-0 10.485,-2.132 14.263,-5.923c3.778,-3.792 5.891,-8.932 5.872,-14.285c-0.184,-52.28 -0.693,-193.212 -0.881,-245.348c-0.039,-10.606 -8.648,-19.183 -19.254,-19.183c-0.001,0.014 -0.002,0.014 -0.003,0.014c-10.598,-0 -19.2,8.571 -19.239,19.17c-0.203,52.135 -0.712,193.067 -0.901,245.347Zm91.878,-4.061c0.818,5.292 3.709,10.039 8.035,13.194c4.326,3.156 9.73,4.458 15.019,3.621c-0,-0.006 0.001,-0.006 0.002,-0.007c5.286,-0.837 10.022,-3.745 13.161,-8.081c3.138,-4.336 4.421,-9.744 3.564,-15.027c-8.36,-51.608 -30.909,-190.726 -39.251,-242.189c-1.697,-10.47 -11.542,-17.595 -22.017,-15.936c0.001,0.014 -0,0.014 -0.001,0.014c-10.468,1.658 -17.623,11.47 -16.003,21.944c7.955,51.525 29.499,190.802 37.491,242.467Zm90.111,-18.383c1.636,5.098 5.234,9.335 10,11.775c4.767,2.439 10.308,2.88 15.4,1.226c-0.001,-0.006 0,-0.006 0.001,-0.007c5.091,-1.654 9.313,-5.267 11.735,-10.041c2.421,-4.773 2.842,-10.315 1.17,-15.399c-16.33,-49.665 -60.365,-183.542 -76.655,-233.068c-3.314,-10.075 -14.152,-15.572 -24.239,-12.295c0.003,0.014 0.002,0.015 0.001,0.015c-10.079,3.275 -15.612,14.085 -12.373,24.176c15.917,49.646 58.984,183.839 74.96,233.618Zm86.125,-32.254c2.414,4.78 6.631,8.402 11.72,10.066c5.089,1.664 10.631,1.232 15.402,-1.198c-0.002,-0.006 -0.001,-0.006 -0,-0.007c4.769,-2.43 8.374,-6.659 10.019,-11.753c1.645,-5.094 1.194,-10.633 -1.253,-15.393c-23.898,-46.498 -88.334,-171.839 -112.17,-218.206c-4.85,-9.433 -16.415,-13.167 -25.865,-8.352c0.006,0.013 0.005,0.013 0.004,0.014c-9.443,4.811 -13.217,16.354 -8.439,25.814c23.487,46.545 87.016,172.348 110.582,219.015Zm80.02,-45.329c3.131,4.343 7.863,7.261 13.15,8.108c5.287,0.847 10.693,-0.446 15.025,-3.593c-0.003,-0.005 -0.002,-0.005 -0.001,-0.006c4.33,-3.146 7.23,-7.887 8.057,-13.176c0.828,-5.288 -0.484,-10.688 -3.646,-15.008c-30.878,-42.187 -114.127,-155.904 -144.924,-197.972c-6.265,-8.558 -18.272,-10.437 -26.853,-4.203c0.008,0.012 0.007,0.013 0.006,0.013c-8.574,6.23 -10.495,18.221 -4.297,26.817c30.48,42.298 112.907,156.614 143.483,199.02Zm71.944,-57.289c3.772,3.8 8.902,5.941 14.256,5.951c5.354,0.01 10.492,-2.113 14.278,-5.899c-0.004,-0.005 -0.003,-0.005 -0.002,-0.006c3.785,-3.785 5.907,-8.921 5.897,-14.274c-0.01,-5.353 -2.15,-10.481 -5.949,-14.253c-37.097,-36.837 -137.111,-136.132 -174.11,-172.864c-7.527,-7.472 -19.679,-7.45 -27.179,0.05c0.009,0.011 0.009,0.011 0.008,0.012c-7.494,7.494 -7.516,19.638 -0.049,27.159c36.721,37.009 136.016,137.023 172.85,174.124Zm62.095,-67.839c4.321,3.163 9.722,4.476 15.012,3.648c5.29,-0.828 10.032,-3.728 13.18,-8.06c-0.005,-0.004 -0.004,-0.005 -0.004,-0.005c3.147,-4.331 4.439,-9.736 3.592,-15.021c-0.847,-5.286 -3.763,-10.016 -8.105,-13.147c-42.403,-30.58 -156.719,-113.007 -199.008,-143.499c-8.603,-6.202 -20.603,-4.279 -26.837,4.301c0.011,0.009 0.01,0.01 0.01,0.011c-6.23,8.574 -4.352,20.572 4.2,26.832c42.058,30.809 155.776,114.058 197.96,144.94Zm50.719,-76.717c4.762,2.449 10.303,2.9 15.398,1.255c5.095,-1.645 9.326,-5.252 11.756,-10.022c-0.005,-0.004 -0.004,-0.005 -0.004,-0.006c2.43,-4.769 2.861,-10.31 1.198,-15.397c-1.663,-5.088 -5.284,-9.304 -10.062,-11.717c-46.665,-23.571 -172.468,-87.1 -219.006,-110.601c-9.468,-4.78 -21.019,-1.004 -25.834,8.447c0.012,0.007 0.012,0.008 0.011,0.009c-4.811,9.443 -1.079,20.999 8.346,25.844c46.361,23.85 171.702,88.286 218.197,112.188Zm38.094,-83.706c5.086,1.673 10.629,1.252 15.404,-1.17c4.775,-2.422 8.389,-6.646 10.044,-11.738c-0.006,-0.003 -0.005,-0.004 -0.005,-0.005c1.654,-5.09 1.213,-10.63 -1.226,-15.395c-2.438,-4.765 -6.674,-8.363 -11.771,-9.999c-49.778,-15.98 -183.97,-59.047 -233.611,-74.978c-10.099,-3.241 -20.917,2.296 -24.195,12.383c0.013,0.006 0.013,0.006 0.013,0.007c-3.275,10.08 2.218,20.91 12.286,24.221c49.521,16.304 183.398,60.339 233.061,76.674Zm24.53,-88.636c5.285,0.857 10.694,-0.426 15.031,-3.565c4.338,-3.139 7.246,-7.876 8.084,-13.164c-0.006,-0.002 -0.005,-0.003 -0.005,-0.004c0.837,-5.287 -0.465,-10.69 -3.619,-15.014c-3.154,-4.325 -7.901,-7.216 -13.191,-8.034c-51.664,-7.997 -190.942,-29.541 -242.464,-37.511c-10.482,-1.621 -20.301,5.54 -21.96,16.016c0.014,0.003 0.014,0.004 0.014,0.005c-1.658,10.468 5.462,20.305 15.924,22.001c51.461,8.356 190.579,30.906 242.186,39.27Zm10.362,-91.381c5.354,0.019 10.495,-2.094 14.288,-5.873c3.793,-3.779 5.925,-8.913 5.925,-14.267c-0.005,-0.001 -0.005,-0.002 -0.005,-0.003c-0,-5.352 -2.132,-10.485 -5.924,-14.263c-3.791,-3.778 -8.931,-5.891 -14.284,-5.872c-52.28,0.184 -193.213,0.693 -245.348,0.881c-10.606,0.039 -19.183,8.648 -19.183,19.254c0.014,0.001 0.014,0.002 0.014,0.003c-0,10.599 8.571,19.201 19.169,19.239c52.135,0.203 193.068,0.712 245.348,0.901Zm-4.061,-91.877c5.292,-0.819 10.039,-3.71 13.194,-8.036c3.155,-4.326 4.458,-9.73 3.62,-15.018c-0.005,-0 -0.006,-0.001 -0.006,-0.002c-0.837,-5.287 -3.745,-10.023 -8.081,-13.161c-4.336,-3.139 -9.744,-4.421 -15.028,-3.565c-51.607,8.36 -190.725,30.909 -242.189,39.251c-10.469,1.697 -17.594,11.542 -15.935,22.018c0.014,-0.001 0.014,-0 0.014,0c1.658,10.468 11.47,17.624 21.943,16.004c51.525,-7.955 190.803,-29.499 242.468,-37.491Zm-18.383,-90.111c5.098,-1.636 9.335,-5.235 11.774,-10.001c2.44,-4.766 2.881,-10.307 1.227,-15.4c-0.006,0.001 -0.007,0 -0.007,-0.001c-1.654,-5.09 -5.267,-9.313 -10.041,-11.734c-4.773,-2.422 -10.315,-2.843 -15.4,-1.17c-49.664,16.33 -183.541,60.364 -233.067,76.654c-10.075,3.314 -15.572,14.152 -12.295,24.24c0.014,-0.004 0.014,-0.003 0.015,-0.002c3.275,10.08 14.085,15.612 24.176,12.374c49.646,-15.918 183.838,-58.984 233.618,-74.96Zm-32.254,-86.126c4.78,-2.413 8.402,-6.63 10.066,-11.719c1.663,-5.09 1.232,-10.632 -1.198,-15.402c-0.006,0.001 -0.007,0.001 -0.007,-0c-2.43,-4.77 -6.659,-8.375 -11.753,-10.02c-5.094,-1.645 -10.633,-1.194 -15.393,1.254c-46.498,23.898 -171.839,88.333 -218.207,112.17c-9.432,4.85 -13.166,16.414 -8.351,25.864c0.013,-0.005 0.013,-0.004 0.014,-0.003c4.811,9.443 16.354,13.216 25.814,8.439c46.545,-23.488 172.348,-87.017 219.015,-110.583Zm-45.329,-80.02c4.343,-3.131 7.261,-7.863 8.108,-13.15c0.847,-5.286 -0.446,-10.693 -3.593,-15.024c-0.005,0.002 -0.006,0.001 -0.006,0.001c-3.146,-4.331 -7.888,-7.23 -13.176,-8.058c-5.288,-0.828 -10.689,0.484 -15.008,3.646c-42.187,30.878 -155.905,114.128 -197.972,144.924c-8.558,6.266 -10.437,18.272 -4.203,26.853c0.012,-0.008 0.013,-0.007 0.013,-0.006c6.23,8.574 18.22,10.496 26.817,4.297c42.298,-30.48 156.614,-112.906 199.02,-143.483Zm-57.289,-71.943c3.8,-3.772 5.941,-8.902 5.951,-14.257c0.01,-5.354 -2.113,-10.491 -5.899,-14.277c-0.005,0.003 -0.006,0.002 -0.006,0.002c-3.785,-3.785 -8.922,-5.907 -14.274,-5.898c-5.353,0.01 -10.482,2.151 -14.253,5.949c-36.837,37.098 -136.132,137.112 -172.864,174.11c-7.472,7.527 -7.45,19.68 0.05,27.18c0.011,-0.01 0.011,-0.009 0.012,-0.008c7.494,7.494 19.638,7.516 27.159,0.049c37.009,-36.722 137.023,-136.016 174.124,-172.85Zm-67.839,-62.096c3.163,-4.32 4.476,-9.722 3.648,-15.012c-0.828,-5.29 -3.728,-10.032 -8.06,-13.179c-0.004,0.004 -0.005,0.004 -0.006,0.003c-4.33,-3.146 -9.735,-4.439 -15.02,-3.592c-5.286,0.847 -10.016,3.764 -13.147,8.105c-30.58,42.404 -113.007,156.72 -143.499,199.009c-6.203,8.603 -4.28,20.602 4.301,26.837c0.009,-0.011 0.01,-0.011 0.011,-0.01c8.574,6.229 20.571,4.351 26.832,-4.2c30.809,-42.059 114.058,-155.777 144.94,-197.961Zm-76.717,-50.719c2.448,-4.762 2.9,-10.302 1.255,-15.398c-1.646,-5.095 -5.252,-9.325 -10.023,-11.756c-0.003,0.005 -0.004,0.005 -0.005,0.004c-4.769,-2.43 -10.31,-2.861 -15.398,-1.198c-5.087,1.664 -9.303,5.284 -11.716,10.062c-23.571,46.665 -87.1,172.468 -110.601,219.006c-4.78,9.468 -1.004,21.019 8.446,25.834c0.008,-0.012 0.009,-0.011 0.009,-0.011c9.444,4.812 21,1.08 25.845,-8.346c23.85,-46.36 88.286,-171.701 112.188,-218.197Zm-83.706,-38.093c1.673,-5.087 1.252,-10.63 -1.17,-15.405c-2.422,-4.775 -6.646,-8.389 -11.738,-10.043c-0.003,0.005 -0.004,0.005 -0.005,0.004c-5.09,-1.654 -10.63,-1.213 -15.395,1.226c-4.765,2.439 -8.363,6.674 -9.999,11.771c-15.98,49.778 -59.047,183.97 -74.978,233.612c-3.241,10.099 2.296,20.917 12.383,24.194c0.005,-0.013 0.006,-0.013 0.007,-0.012c10.08,3.275 20.91,-2.219 24.221,-12.287c16.304,-49.52 60.339,-183.398 76.674,-233.06Zm-88.636,-24.53c0.857,-5.285 -0.426,-10.694 -3.565,-15.032c-3.139,-4.337 -7.876,-7.246 -13.164,-8.084c-0.002,0.006 -0.003,0.006 -0.004,0.006c-5.287,-0.838 -10.69,0.465 -15.015,3.619c-4.324,3.154 -7.215,7.9 -8.033,13.19c-7.997,51.665 -29.541,190.942 -37.511,242.465c-1.621,10.481 5.54,20.3 16.016,21.959c0.003,-0.014 0.004,-0.014 0.005,-0.013c10.468,1.658 20.305,-5.463 22.001,-15.924c8.356,-51.462 30.905,-190.58 39.27,-242.186Z"/></clipPath><g clip-path="url(#_clip1)"><rect x="-0" y="-0" width="1296.68" height="1275.67" style="fill:url(#_Linear2);"/></g><defs><linearGradient id="_Linear2" x1="0" y1="0" x2="1" y2="0" gradientUnits="userSpaceOnUse" gradientTransform="matrix(1146.38,1173.57,-1173.57,1146.38,44.8498,18.4388)"><stop offset="0" style="stop-color:#0062ff;stop-opacity:1"/><stop offset="1" style="stop-color:#ff337e;stop-opacity:1"/></linearGradient></defs></svg>