<?xml version="1.0" encoding="UTF-8" standalone="no"?><!DOCTYPE svg PUBLIC "-//W3C//DTD SVG 1.1//EN" "http://www.w3.org/Graphics/SVG/1.1/DTD/svg11.dtd"><svg width="100%" height="100%" viewBox="0 0 1248 1248" version="1.1" xmlns="http://www.w3.org/2000/svg" xmlns:xlink="http://www.w3.org/1999/xlink" xml:space="preserve" xmlns:serif="http://www.serif.com/" style="fill-rule:evenodd;clip-rule:evenodd;stroke-linejoin:round;stroke-miterlimit:2;"><rect id="pie-Artboard4" serif:id="pie Artboard4" x="0" y="0" width="1247.67" height="1247.67" style="fill:none;"/><g id="shadows"><g id="big-shadow"><path d="M473.612,204.7c-231.461,83 -351.812,337.922 -268.812,569.382c82.945,231.306 338.077,351.756 569.383,268.812c160.523,-57.563 274.064,-201.758 292.37,-371.305l-442.656,-47.792l-150.285,-419.097Z" style="fill:url(#_pie_Linear1);"/></g><g id="medium-shadow"><path d="M1051.44,499.734c-50.348,-173.55 -200.596,-299.451 -380.27,-318.648c-67.172,-7.177 -135.097,1.027 -198.629,23.992l-2.51,66.955l150.701,416.286l427.148,-122.504l3.56,-66.081Z" style="fill:#0040a0;"/><clipPath id="_pie_clip2"><path d="M1051.44,499.734c-50.348,-173.55 -200.596,-299.451 -380.27,-318.648c-67.172,-7.177 -135.097,1.027 -198.629,23.992l-2.51,66.955l150.701,416.286l427.148,-122.504l3.56,-66.081Z"/></clipPath><g clip-path="url(#_pie_clip2)"><path d="M622.55,623.794l223.961,-445.228c208.454,121.214 285.303,258.545 297.282,403.821l-519.896,117.161l-1.347,-75.754Z" style="fill:#181818;fill-opacity:0.5;"/></g></g><g id="small-shadow"><path d="M1066.61,671.098c6.144,-57.505 1.026,-115.655 -15.068,-171.202l-427.641,123.901l0.077,62.749l429.417,52.512c2.878,-20.662 8.869,-49.723 13.215,-67.96Z" style="fill:#0040a0;"/><clipPath id="_pie_clip3"><path d="M1066.61,671.098c6.144,-57.505 1.026,-115.655 -15.068,-171.202l-427.641,123.901l0.077,62.749l429.417,52.512c2.878,-20.662 8.869,-49.723 13.215,-67.96Z"/></clipPath><g clip-path="url(#_pie_clip3)"><path d="M622.55,623.794l610.065,-222.614l-86.521,362.414l-523.544,-48.093l0,-91.707Z" style="fill:#181818;fill-opacity:0.5;"/></g></g></g><g><g id="big-slice"><path d="M473.612,204.7c-231.461,83 -351.812,337.922 -268.812,569.382c82.945,231.306 338.077,351.756 569.383,268.812c160.523,-57.563 274.064,-201.758 292.37,-371.305l-442.656,-47.792l-150.285,-419.097Z" style="fill:none;"/><clipPath id="_pie_clip4"><path d="M473.612,204.7c-231.461,83 -351.812,337.922 -268.812,569.382c82.945,231.306 338.077,351.756 569.383,268.812c160.523,-57.563 274.064,-201.758 292.37,-371.305l-442.656,-47.792l-150.285,-419.097Z"/></clipPath><g clip-path="url(#_pie_clip4)"><rect x="-24.442" y="-52.337" width="1296.68" height="1275.67" style="fill:url(#_pie_Radial5);"/></g></g><g id="medium-slice"><path d="M1051.44,499.734c-50.348,-173.55 -200.596,-299.451 -380.27,-318.648c-67.172,-7.177 -135.097,1.027 -198.629,23.992l151.328,418.716l427.571,-124.06Z" style="fill:none;"/><clipPath id="_pie_clip6"><path d="M1051.44,499.734c-50.348,-173.55 -200.596,-299.451 -380.27,-318.648c-67.172,-7.177 -135.097,1.027 -198.629,23.992l151.328,418.716l427.571,-124.06Z"/></clipPath><g clip-path="url(#_pie_clip6)"><rect x="-24.442" y="-52.337" width="1296.68" height="1275.67" style="fill:url(#_pie_Radial7);"/></g></g><g id="small-slice"><path d="M1066.61,671.098c6.144,-57.505 1.026,-115.655 -15.068,-171.202l-427.641,123.901l442.709,47.301Z" style="fill:none;"/><clipPath id="_pie_clip8"><path d="M1066.61,671.098c6.144,-57.505 1.026,-115.655 -15.068,-171.202l-427.641,123.901l442.709,47.301Z"/></clipPath><g clip-path="url(#_pie_clip8)"><rect x="-24.442" y="-52.337" width="1296.68" height="1275.67" style="fill:url(#_pie_Radial9);"/></g></g></g><defs><linearGradient id="_pie_Linear1" x1="0" y1="0" x2="1" y2="0" gradientUnits="userSpaceOnUse" gradientTransform="matrix(407.511,738.828,-738.828,407.511,354.481,312.664)"><stop offset="0" style="stop-color:#0040a0;stop-opacity:1"/><stop offset="0.62" style="stop-color:#003b92;stop-opacity:1"/><stop offset="0.82" style="stop-color:#002e71;stop-opacity:1"/><stop offset="1" style="stop-color:#001f4d;stop-opacity:1"/></linearGradient><radialGradient id="_pie_Radial5" cx="0" cy="0" r="1" gradientUnits="userSpaceOnUse" gradientTransform="matrix(440.534,916.731,-916.731,440.534,391.254,204.7)"><stop offset="0" style="stop-color:#0062ff;stop-opacity:1"/><stop offset="0.45" style="stop-color:#4954da;stop-opacity:1"/><stop offset="1" style="stop-color:#ff337e;stop-opacity:1"/></radialGradient><radialGradient id="_pie_Radial7" cx="0" cy="0" r="1" gradientUnits="userSpaceOnUse" gradientTransform="matrix(440.534,916.731,-916.731,440.534,391.254,204.7)"><stop offset="0" style="stop-color:#0062ff;stop-opacity:1"/><stop offset="0.45" style="stop-color:#4954da;stop-opacity:1"/><stop offset="1" style="stop-color:#ff337e;stop-opacity:1"/></radialGradient><radialGradient id="_pie_Radial9" cx="0" cy="0" r="1" gradientUnits="userSpaceOnUse" gradientTransform="matrix(440.534,916.731,-916.731,440.534,391.254,204.7)"><stop offset="0" style="stop-color:#0062ff;stop-opacity:1"/><stop offset="0.45" style="stop-color:#4954da;stop-opacity:1"/><stop offset="1" style="stop-color:#ff337e;stop-opacity:1"/></radialGradient></defs></svg>